<svg id="Layer_2" data-name="Layer 2" xmlns="http://www.w3.org/2000/svg" viewBox="0 0 390.75 390.75">
    <defs>
        <style>
            .logo {
                fill: #000;
                stroke-width: 0px;
            }

            @media (prefers-color-scheme: dark) {
                .logo { fill: #fff; }
            }
        </style>
    </defs>
    <path class="logo" d="M195.37,0C87.64,0,0,87.64,0,195.37s87.64,195.37,195.37,195.37,195.37-87.64,195.37-195.37S303.1,0,195.37,0M240.49,337.46c37.6-23.83,65.33-61.96,71.26-107.44,3.69-25.45-.04-51.95-11.83-74.21,20.46,49.69,1.22,112.48-40.41,145.22-12.11,9.52-22.79,18.74-37.17,24.96-13.78,5.97-28.67,9.44-43.69,9.98-40.2,1.45-75.63-17.22-100.18-48.2-14.33-18.08-24.38-39.45-29.07-62.04-2.07-9.98-3.11-20.17-3.11-30.36s1.12-20.86,3.22-30.81c1.98,44.27,21.1,87.08,57.36,114.83,20.2,15.92,45.01,25.94,70.18,26.86-49.5-6.62-89.32-47.16-102.92-93.39-7.36-25.48-7.27-52.92-.54-78.53,14.66-55.74,65.42-88.06,121.79-88.06,38.99,0,74.52,15.06,101.11,39.66-39.7-21.22-87.14-26.47-129.95-8.68-23.89,9.53-44.98,26-58.37,47.35,30.51-39.4,85.48-53.79,132.36-42.41,44.37,10.78,86.23,44.08,99.19,88.82,13.64,47.08-6.43,98.23-40.71,131.41-15.85,15.34-35.07,27.12-55.97,34.19-.85.29-1.7.57-2.55.84"/>
    <path class="logo" d="M195.37,105.6c-49.58,0-89.77,40.19-89.77,89.77s40.19,89.77,89.77,89.77,89.77-40.19,89.77-89.77-40.19-89.77-89.77-89.77"/>
</svg>