<svg xmlns="http://www.w3.org/2000/svg" viewBox="0 0 1080 1080">
    <defs>
        <style>
            .background {
            fill: #000;
            }

            .logo {
            stroke-width: 0px;
            fill: #fff;
            }
        </style>
    </defs>
    <rect class="background" width="1080" height="1080"/>
    <path class="logo"
          d="M308.36,646.02c0-19.87,14.25-34.97,33.84-34.97,17.34,0,29.06,10.6,33.19,24.57h-12c-2.53-8.62-9.94-15.28-21.47-15.28-13.31,0-22.87,10.03-22.87,25.87,0,14.91,9.09,26.16,24.09,26.16,12.47,0,20.34-7.69,22.22-19.22h-23.25v-8.25h34.12c.38,21.56-12.84,36.28-33.47,36.28-19.41,0-34.41-14.72-34.41-35.16"/>
    <path class="logo"
          d="M419.85,679.77v-67.31h25.13c15.47,0,24.75,7.59,24.75,21,0,9.66-6.09,17.06-16.31,19.5l18.28,26.82h-12.38l-16.78-25.31h-12.38v25.31h-10.31ZM430.16,645.83h14.16c9.56,0,15-4.22,15-12.38s-5.44-12.38-15-12.38h-14.16v24.75Z"/>
    <path class="logo"
          d="M509.8,646.02c0-19.87,14.72-34.97,34.22-34.97s34.22,15.1,34.22,34.97-14.72,35.16-34.22,35.16-34.22-15.28-34.22-35.16M567.55,646.02c0-14.44-9.28-25.68-23.53-25.68s-23.53,11.25-23.53,25.68,9.28,25.88,23.53,25.88,23.53-11.44,23.53-25.88"/>
    <path class="logo"
          d="M673.54,655.58c0,15.47-9.94,25.59-26.06,25.59s-25.97-10.13-25.97-25.59v-43.13h10.31v43.41c0,9.75,5.72,16.03,15.66,16.03s15.75-6.28,15.75-16.03v-43.41h10.32v43.13Z"/>
    <path class="logo"
          d="M731.11,656.33v23.44h-10.31v-67.31h23.34c15.09,0,24.84,7.69,24.84,21.75s-9.75,22.12-24.84,22.12h-13.03ZM731.11,621.18v26.44h12.94c9.1,0,14.62-4.97,14.62-13.31s-5.53-13.13-14.62-13.13h-12.94Z"/>
    <polygon class="logo"
             points="494.39 575.11 494.39 402.43 530.94 402.43 530.94 542.16 605.98 542.16 605.98 575.11 494.39 575.11"/>
    <path class="logo"
          d="M638.88,488.05c0-50.99,37.04-89.23,87.54-89.23,43.77,0,75.04,25.97,86.34,63.49h-43.05c-5.29-17.56-21.16-30.78-44.25-30.78-27.9,0-49.06,20.44-49.06,57.48,0,33.19,18.52,58.68,53.15,58.68,25.49,0,41.61-15.15,46.42-36.56h-50.03v-29.1h88.99c2.17,56.28-31.99,96.68-87.06,96.68-50.02,0-88.98-37.28-88.98-90.67"/>
    <path class="logo"
          d="M354.92,398.82c-49.6,0-89.95,40.35-89.95,89.95s40.35,89.95,89.95,89.95,89.95-40.35,89.95-89.95-40.35-89.95-89.95-89.95M375.7,554.19c17.31-10.97,30.08-28.52,32.81-49.46,1.7-11.72-.02-23.92-5.45-34.16,9.42,22.88.56,51.78-18.6,66.86-5.58,4.39-10.49,8.63-17.12,11.49-6.35,2.75-13.2,4.34-20.11,4.59-18.51.67-34.82-7.93-46.12-22.19-6.6-8.33-11.22-18.16-13.38-28.56-.95-4.59-1.43-9.29-1.43-13.98s.52-9.6,1.48-14.18c.91,20.38,9.71,40.09,26.41,52.87,9.3,7.33,20.72,11.94,32.31,12.37-22.79-3.05-41.12-21.71-47.38-43-3.39-11.73-3.35-24.36-.25-36.15,6.75-25.67,30.12-40.54,56.07-40.54,17.95,0,34.31,6.94,46.55,18.26-18.28-9.77-40.12-12.19-59.83-4-11,4.39-20.71,11.97-26.87,21.8,14.05-18.14,39.36-24.77,60.94-19.52,20.43,4.96,39.7,20.29,45.66,40.89,6.28,21.67-2.96,45.23-18.74,60.5-7.3,7.06-16.15,12.49-25.77,15.74-.39.13-.78.26-1.17.39"/>
    <path class="logo"
          d="M354.93,447.44c-22.83,0-41.33,18.5-41.33,41.33s18.5,41.33,41.33,41.33,41.33-18.5,41.33-41.33-18.5-41.33-41.33-41.33"/>
</svg>